# xmcd
#
# Track frame offsets:
#	150
#	22433
#	34573
#	49195
#	66703
#	84843
#	97966
#	117076
#	128318
#	151871
#	168241
#	182731
#	201721
#	227356
#
# Disc length: 3252 seconds
#
# Revision: 0
# Processed by: cddbd v1.5.2PL0 Copyright (c) Steve Scherf et al.
# Submitted via: dBpowerAMP V4.0
#
DISCID=b10cb20e
DTITLE=경배와 찬양 - 새노래 컬렉션 3
DYEAR=2006
DGENRE=Blues
TTITLE0=세밀한 주 음성 들리며
TTITLE1=송축하리라
TTITLE2=야훼
TTITLE3=어린 양의 흘리신 피로
TTITLE4=영원 전 부터 계시는 주님
TTITLE5=예수 전능자
TTITLE6=예수는 평강의 왕
TTITLE7=예수님 내 구주 생명의 떡이요
TTITLE8=예오 예오 예 주님
TTITLE9=오 여호와 주의 선하심
TTITLE10=왕 되신 주 앞에 경배 드리세
TTITLE11=왕 되신 주께 감사하세
TTITLE12=왕의 왕 주의 주 앞에
TTITLE13=우리 마음엔(꿈)
EXTD=
EXTT0=
EXTT1=
EXTT2=
EXTT3=
EXTT4=
EXTT5=
EXTT6=
EXTT7=
EXTT8=
EXTT9=
EXTT10=
EXTT11=
EXTT12=
EXTT13=
PLAYORDER=
